<svg width="166" height="98" viewBox="0 0 166 98" fill="none" xmlns="http://www.w3.org/2000/svg">
<path d="M16.4966 37.2198L63.9658 53.5729L46.6334 77.376L16.4966 37.2198Z" fill="#121111"/>
<path d="M77.1814 6.46931L92.2045 54.3761L62.7602 54.5607L77.1814 6.46931Z" fill="#121111"/>
<path d="M87.28 74.248C87.28 77.032 86.464 79.288 84.832 81.016C83.2 82.712 81.008 83.56 78.256 83.56C77.232 83.56 76.336 83.4 75.568 83.08C74.8 82.728 74.416 82.152 74.416 81.352C76.848 81.352 78.64 80.792 79.792 79.672C80.944 78.552 81.52 76.808 81.52 74.44C81.52 72.424 81.024 70.936 80.032 69.976C79.072 68.984 77.584 68.488 75.568 68.488C74.576 68.488 73.552 68.568 72.496 68.728V97H66.88V65.512C70.656 65.256 73.664 65.128 75.904 65.128C79.552 65.128 82.352 65.848 84.304 67.288C86.288 68.696 87.28 71.016 87.28 74.248ZM106.726 65.32V68.872H96.2616V78.952H105.286V82.504H96.2616V93.448H107.398L107.062 97H90.6456V65.32H106.726ZM128.973 65.32L128.637 68.872H121.245V97H115.629V68.872H108.092V65.32H128.973ZM142.958 82.36V97H137.342V82.936L128.126 65.32H134.27L140.51 78.328L146.414 65.32H152.174L142.958 82.36Z" fill="black"/>
</svg>
